<?xml version="1.0" encoding="utf-8"?>
<svg viewBox="0 0 500 500" xmlns="http://www.w3.org/2000/svg" xmlns:bx="https://boxy-svg.com">
  <path d="M 214.651 206.334 m -10.877 0 a 10.877 10.557 0 1 0 21.754 0 a 10.877 10.557 0 1 0 -21.754 0 Z M 214.651 206.334 m -6.526 0 a 6.526 6.334 0 0 1 13.052 0 a 6.526 6.334 0 0 1 -13.052 0 Z" style="fill: rgb(32, 255, 143);" bx:shape="ring 214.651 206.334 6.526 6.334 10.877 10.557 1@981b98d4"/>
  <path d="M 214.971 206.014 m -26.552 0 a 26.552 26.233 0 1 0 53.104 0 a 26.552 26.233 0 1 0 -53.104 0 Z M 214.971 206.014 m -17.211 0 a 17.211 18.3 0 0 1 34.422 0 a 17.211 18.3 0 0 1 -34.422 0 Z" style="fill: rgb(157, 218, 130);" bx:shape="ring 214.971 206.014 17.211 18.3 26.552 26.233 1@a31da62c"/>
</svg>